<mxfile host="app.diagrams.net" modified="2021-09-02T00:10:13.887Z" agent="5.0 (X11)" etag="gCIaixMnxgWTWm7N45mq" version="14.9.3" type="github">
  <diagram id="OLPzdQ6984Ci1N3j3NNt" name="Page-1">
    <mxGraphModel dx="1422" dy="820" grid="1" gridSize="10" guides="1" tooltips="1" connect="1" arrows="1" fold="1" page="1" pageScale="1" pageWidth="850" pageHeight="1100" math="0" shadow="0">
      <root>
        <mxCell id="0" />
        <mxCell id="1" parent="0" />
        <mxCell id="0RGbT1HDXZxZlaM0Kru3-4" value="&lt;div&gt;&lt;b&gt;74HC245D&lt;/b&gt;&lt;/div&gt;&lt;div&gt;B--&amp;gt;A&lt;b&gt;&lt;br&gt;&lt;/b&gt;&lt;/div&gt;" style="rounded=0;whiteSpace=wrap;html=1;strokeWidth=2;" vertex="1" parent="1">
          <mxGeometry x="80" y="260" width="70" height="100" as="geometry" />
        </mxCell>
        <mxCell id="0RGbT1HDXZxZlaM0Kru3-5" value="&lt;div&gt;&lt;b&gt;74HC245D&lt;/b&gt;&lt;/div&gt;&lt;div&gt;A--&amp;gt;B&lt;b&gt;&lt;br&gt;&lt;/b&gt;&lt;/div&gt;" style="rounded=0;whiteSpace=wrap;html=1;strokeWidth=2;" vertex="1" parent="1">
          <mxGeometry x="80" y="380" width="70" height="100" as="geometry" />
        </mxCell>
        <mxCell id="0RGbT1HDXZxZlaM0Kru3-6" value="&lt;b&gt;74HC138D&lt;/b&gt;" style="rounded=0;whiteSpace=wrap;html=1;strokeWidth=2;" vertex="1" parent="1">
          <mxGeometry x="220" y="410" width="70" height="100" as="geometry" />
        </mxCell>
        <mxCell id="0RGbT1HDXZxZlaM0Kru3-7" value="&lt;b&gt;74HC138D&lt;/b&gt;" style="rounded=0;whiteSpace=wrap;html=1;strokeWidth=2;" vertex="1" parent="1">
          <mxGeometry x="220" y="520" width="70" height="100" as="geometry" />
        </mxCell>
        <mxCell id="0RGbT1HDXZxZlaM0Kru3-14" value="&lt;b&gt;74HC595&lt;/b&gt;" style="rounded=0;whiteSpace=wrap;html=1;strokeWidth=2;" vertex="1" parent="1">
          <mxGeometry x="315" y="280" width="120" height="60" as="geometry" />
        </mxCell>
        <mxCell id="0RGbT1HDXZxZlaM0Kru3-15" value="&lt;b&gt;74HC595&lt;/b&gt;" style="rounded=0;whiteSpace=wrap;html=1;strokeWidth=2;" vertex="1" parent="1">
          <mxGeometry x="445" y="280" width="120" height="60" as="geometry" />
        </mxCell>
        <mxCell id="0RGbT1HDXZxZlaM0Kru3-16" value="&lt;b&gt;74HC595&lt;/b&gt;" style="rounded=0;whiteSpace=wrap;html=1;strokeWidth=2;" vertex="1" parent="1">
          <mxGeometry x="630" y="280" width="120" height="60" as="geometry" />
        </mxCell>
        <mxCell id="0RGbT1HDXZxZlaM0Kru3-17" value="" style="verticalLabelPosition=bottom;shadow=0;dashed=0;align=center;html=1;verticalAlign=top;shape=mxgraph.electrical.mosfets1.mosfet_ic_p;strokeWidth=2;flipH=0;flipV=1;" vertex="1" parent="1">
          <mxGeometry x="337" y="540" width="76" height="80" as="geometry" />
        </mxCell>
        <mxCell id="0RGbT1HDXZxZlaM0Kru3-18" value="" style="verticalLabelPosition=bottom;shadow=0;dashed=0;align=center;html=1;verticalAlign=top;shape=mxgraph.electrical.mosfets1.mosfet_ic_p;strokeWidth=2;flipH=0;flipV=1;" vertex="1" parent="1">
          <mxGeometry x="467" y="540" width="76" height="80" as="geometry" />
        </mxCell>
        <mxCell id="0RGbT1HDXZxZlaM0Kru3-19" value="" style="verticalLabelPosition=bottom;shadow=0;dashed=0;align=center;html=1;verticalAlign=top;shape=mxgraph.electrical.mosfets1.mosfet_ic_p;strokeWidth=2;flipH=0;flipV=1;" vertex="1" parent="1">
          <mxGeometry x="652" y="540" width="76" height="80" as="geometry" />
        </mxCell>
        <mxCell id="0RGbT1HDXZxZlaM0Kru3-20" value="Columns A1-A8" style="text;html=1;strokeColor=none;fillColor=none;align=center;verticalAlign=middle;whiteSpace=wrap;rounded=0;" vertex="1" parent="1">
          <mxGeometry x="350" y="360" width="40" height="20" as="geometry" />
        </mxCell>
        <mxCell id="0RGbT1HDXZxZlaM0Kru3-21" value="Columns A9-A16" style="text;html=1;strokeColor=none;fillColor=none;align=center;verticalAlign=middle;whiteSpace=wrap;rounded=0;" vertex="1" parent="1">
          <mxGeometry x="470" y="360" width="50" height="20" as="geometry" />
        </mxCell>
        <mxCell id="0RGbT1HDXZxZlaM0Kru3-22" value="Columns An-An+7" style="text;html=1;strokeColor=none;fillColor=none;align=center;verticalAlign=middle;whiteSpace=wrap;rounded=0;" vertex="1" parent="1">
          <mxGeometry x="665" y="360" width="50" height="20" as="geometry" />
        </mxCell>
        <mxCell id="0RGbT1HDXZxZlaM0Kru3-23" value="&lt;div&gt;Rows&lt;/div&gt;&lt;div&gt;1-8&lt;/div&gt;" style="text;html=1;strokeColor=none;fillColor=none;align=center;verticalAlign=middle;whiteSpace=wrap;rounded=0;" vertex="1" parent="1">
          <mxGeometry x="350" y="500" width="40" height="20" as="geometry" />
        </mxCell>
        <mxCell id="0RGbT1HDXZxZlaM0Kru3-24" value="&lt;div&gt;Rows&lt;/div&gt;&lt;div&gt;&lt;br&gt;&lt;/div&gt;" style="text;html=1;strokeColor=none;fillColor=none;align=center;verticalAlign=middle;whiteSpace=wrap;rounded=0;" vertex="1" parent="1">
          <mxGeometry x="470" y="500" width="50" height="20" as="geometry" />
        </mxCell>
        <mxCell id="0RGbT1HDXZxZlaM0Kru3-25" value="&lt;div&gt;Rows&lt;/div&gt;&lt;div&gt;&lt;br&gt;&lt;/div&gt;" style="text;html=1;strokeColor=none;fillColor=none;align=center;verticalAlign=middle;whiteSpace=wrap;rounded=0;" vertex="1" parent="1">
          <mxGeometry x="665" y="500" width="50" height="20" as="geometry" />
        </mxCell>
      </root>
    </mxGraphModel>
  </diagram>
</mxfile>
